<?xml version="1.0" standalone="no"?>
<!DOCTYPE svg PUBLIC "-//W3C//DTD SVG 20010904//EN"
 "http://www.w3.org/TR/2001/REC-SVG-20010904/DTD/svg10.dtd">
<svg version="1.0" xmlns="http://www.w3.org/2000/svg"
 width="300.000000pt" height="300.000000pt" viewBox="0 0 300.000000 300.000000"
 preserveAspectRatio="xMidYMid meet">

<g transform="translate(0.000000,300.000000) scale(0.100000,-0.100000)"
fill="#000000" stroke="none">
<path d="M1320 2990 c-41 -6 -122 -22 -180 -36 -719 -179 -1196 -845 -1132
-1581 32 -365 180 -683 438 -938 193 -191 434 -327 698 -390 224 -55 488 -55
712 0 428 104 785 391 984 790 68 138 100 227 131 375 32 150 32 408 1 567
-61 310 -192 554 -416 779 -222 222 -465 353 -769 415 -116 23 -353 33 -467
19z m-339 -298 c34 -17 65 -44 84 -71 28 -40 30 -49 30 -130 0 -80 -3 -93 -37
-163 -28 -55 -56 -92 -105 -139 -189 -178 -438 -211 -551 -73 -112 136 -28
374 183 519 126 87 293 111 396 57z m991 -708 c61 -20 142 -92 175 -158 21
-40 27 -70 31 -139 4 -83 3 -91 -27 -152 -35 -70 -86 -120 -160 -157 -38 -18
-62 -23 -136 -23 -106 0 -160 21 -229 91 -121 121 -128 319 -17 446 92 104
223 137 363 92z m-572 -575 c44 -76 141 -168 213 -203 217 -102 433 -62 605
112 l73 74 97 -22 c106 -24 328 -94 453 -142 59 -22 79 -34 79 -48 0 -35 -68
-226 -110 -311 -213 -423 -586 -704 -1055 -796 -136 -26 -406 -24 -542 5 -539
116 -955 497 -1113 1020 -12 40 -20 78 -17 86 11 27 447 167 659 210 192 39
438 71 573 75 l50 1 35 -61z"/>
<path d="M1790 1921 c-75 -24 -139 -82 -167 -150 -24 -57 -19 -143 12 -206 43
-89 123 -137 227 -136 111 0 203 71 235 180 33 116 -20 236 -131 293 -43 22
-136 32 -176 19z m188 -48 c197 -122 110 -426 -123 -426 -212 -1 -309 251
-153 400 51 49 93 64 166 59 47 -3 75 -11 110 -33z"/>
</g>
</svg>
